<svg xmlns="http://www.w3.org/2000/svg" width="800" height="500" viewBox="0 0 800 500" fill="none">
  <rect width="800" height="500" fill="#071116"/>
  <rect x="20" y="20" width="760" height="460" rx="16" fill="#0d1e28" stroke="rgba(126,231,212,0.15)" stroke-width="1"/>
  <!-- App UI mockup -->
  <rect x="40" y="50" width="160" height="400" rx="12" fill="#0a1820"/>
  <rect x="40" y="50" width="160" height="40" rx="12" fill="#0f2530"/>
  <text x="120" y="76" text-anchor="middle" font-family="sans-serif" font-size="11" fill="rgba(126,231,212,0.8)">GLPRoot</text>
  <rect x="50" y="105" width="140" height="8" rx="4" fill="#1a3040"/>
  <rect x="50" y="120" width="100" height="8" rx="4" fill="#1a3040"/>
  <rect x="50" y="140" width="140" height="8" rx="4" fill="#1a3040"/>
  <rect x="50" y="155" width="80" height="8" rx="4" fill="#1a3040"/>
  <!-- Main area -->
  <rect x="220" y="50" width="520" height="190" rx="12" fill="#0a1820"/>
  <text x="480" y="150" text-anchor="middle" font-family="serif" font-size="22" fill="rgba(255,255,255,0.7)">GLP-1 Support Platform</text>
  <text x="480" y="175" text-anchor="middle" font-family="sans-serif" font-size="12" fill="rgba(126,231,212,0.6)">Track symptoms · medication · labs · nutrition</text>
  <rect x="220" y="260" width="250" height="190" rx="12" fill="#0a1820"/>
  <rect x="490" y="260" width="250" height="190" rx="12" fill="#0a1820"/>
  <text x="345" y="370" text-anchor="middle" font-family="sans-serif" font-size="11" fill="rgba(255,255,255,0.4)">Add GLPRoot screenshot</text>
  <text x="615" y="370" text-anchor="middle" font-family="sans-serif" font-size="11" fill="rgba(255,255,255,0.4)">Add GLPRoot screenshot</text>
</svg>
